HIERARCHY
ROOT Hips
{
	OFFSET -0.001795 -0.223333 0.028219
	CHANNELS 6 Xposition Yposition Zposition Zrotation Yrotation Xrotation 
	JOINT LeftUpLeg
	{
		OFFSET 0.069520 -0.091406 -0.006815
		CHANNELS 3 Zrotation Yrotation Xrotation
		JOINT LeftLeg
		{
			OFFSET 0.034277 -0.375199 -0.004496
			CHANNELS 3 Zrotation Yrotation Xrotation
			JOINT LeftFoot
			{
				OFFSET -0.013596 -0.397961 -0.043693
				CHANNELS 3 Zrotation Yrotation Xrotation
				JOINT LeftToe
				{
					OFFSET 0.026358 -0.055791 0.119288
					CHANNELS 3 Zrotation Yrotation Xrotation
					End Site
					{
						OFFSET 0.000000 0.000000 0.000000
					}
				}
			}
		}
	}
	JOINT RightUpLeg
	{
		OFFSET -0.067670 -0.090522 -0.004320
		CHANNELS 3 Zrotation Yrotation Xrotation
		JOINT RightLeg
		{
			OFFSET -0.038290 -0.382569 -0.008850
			CHANNELS 3 Zrotation Yrotation Xrotation
			JOINT RightFoot
			{
				OFFSET 0.015774 -0.398415 -0.042312
				CHANNELS 3 Zrotation Yrotation Xrotation
				JOINT RightToe
				{
					OFFSET -0.025372 -0.048144 0.123348
					CHANNELS 3 Zrotation Yrotation Xrotation
					End Site
					{
						OFFSET 0.000000 0.000000 0.000000
					}
				}
			}
		}
	}
	JOINT Spine
	{
		OFFSET -0.002533 0.108963 -0.026696
		CHANNELS 3 Zrotation Yrotation Xrotation
		JOINT Spine1
		{
			OFFSET 0.005487 0.135180 0.001092
			CHANNELS 3 Zrotation Yrotation Xrotation
			JOINT Spine2
			{
				OFFSET 0.001457 0.052922 0.025425
				CHANNELS 3 Zrotation Yrotation Xrotation
				JOINT Neck
				{
					OFFSET -0.002778 0.213870 -0.042857
					CHANNELS 3 Zrotation Yrotation Xrotation
					JOINT Head
					{
						OFFSET 0.005152 0.064970 0.051349
						CHANNELS 3 Zrotation Yrotation Xrotation
						End Site
						{
							OFFSET 0.000000 0.000000 0.000000
						}
					}
				}
				JOINT LeftShoulder
				{
					OFFSET 0.078845 0.121749 -0.034090
					CHANNELS 3 Zrotation Yrotation Xrotation
					JOINT LeftArm
					{
						OFFSET 0.090977 0.030469 -0.008868
						CHANNELS 3 Zrotation Yrotation Xrotation
						JOINT LeftForeArm
						{
							OFFSET 0.259612 -0.012772 -0.027456
							CHANNELS 3 Zrotation Yrotation Xrotation
							JOINT LeftHand
							{
								OFFSET 0.249234 0.008986 -0.001171
								CHANNELS 3 Zrotation Yrotation Xrotation
								End Site
								{
									OFFSET 0.000000 0.000000 0.000000
								}
							}
						}
					}
				}
				JOINT RightShoulder
				{
					OFFSET -0.081759 0.118833 -0.038615
					CHANNELS 3 Zrotation Yrotation Xrotation
					JOINT RightArm
					{
						OFFSET -0.096012 0.032551 -0.009143
						CHANNELS 3 Zrotation Yrotation Xrotation
						JOINT RightForeArm
						{
							OFFSET -0.253742 -0.013329 -0.021401
							CHANNELS 3 Zrotation Yrotation Xrotation
							JOINT RightHand
							{
								OFFSET -0.255298 0.007772 -0.005559
								CHANNELS 3 Zrotation Yrotation Xrotation
								End Site
								{
									OFFSET 0.000000 0.000000 0.000000
								}
							}
						}
					}
				}
			}
		}
	}
}
MOTION
Frames: 9
Frame Time: 0.050000
-0.033210 0.953139 -0.038562 -1.362763 1.593302 12.906603 6.378391 -0.915975 -17.206799 5.055698 -0.555792 0.483160 0.168325 5.829593 14.513407 0.000000 0.000000 0.000000 -1.759438 1.435956 -16.070563 -6.466801 0.401591 -2.682401 -0.599474 -7.103487 16.449169 0.000000 0.000000 0.000000 5.175466 -0.681076 4.476780 1.172648 -0.877114 7.159019 -9.399197 7.518747 3.522731 16.149522 -11.451189 -4.943973 0.000000 0.000000 0.000000 7.774415 -33.429533 9.940526 -16.241008 -30.095167 0.669404 -30.678738 -67.523853 20.845618 0.000000 0.000000 0.000000 -5.420525 19.394965 6.516605 28.334270 17.667443 0.988335 76.976663 68.618991 64.452428 0.000000 0.000000 0.000000 
-0.033847 0.953520 -0.041835 -1.334344 1.395253 13.751062 6.847160 -0.895520 -17.863474 4.499105 -0.463815 0.055688 0.551726 6.523149 14.968924 0.000000 0.000000 0.000000 -1.557625 1.572692 -17.421731 -6.864434 0.454735 -2.414801 -0.300575 -6.463331 15.857474 0.000000 0.000000 0.000000 4.789413 -0.766365 5.722128 1.393140 -1.009720 7.622588 -9.567359 6.808822 3.257341 16.059791 -11.374155 -4.868468 0.000000 0.000000 0.000000 11.159082 -35.709889 10.022024 -12.556420 -32.498996 0.049314 -4.945284 -64.609064 3.700005 0.000000 0.000000 0.000000 -7.218073 21.697894 6.959530 26.504246 19.959921 1.359098 57.317082 73.719429 51.436732 0.000000 0.000000 0.000000 
-0.033300 0.954418 -0.044435 -1.540184 0.821282 14.092194 7.226198 -0.844632 -18.061181 4.340417 -0.407052 -0.539979 0.433994 6.404368 15.545005 0.000000 0.000000 0.000000 -1.292894 1.653287 -17.886022 -6.870290 0.426276 -2.635438 0.230080 -5.649951 15.935161 0.000000 0.000000 0.000000 4.696701 -0.903361 7.393049 1.444765 -1.037019 8.108725 -9.313541 6.154202 2.590319 15.691050 -11.120302 -4.620008 0.000000 0.000000 0.000000 15.375199 -36.847432 9.506584 -9.058069 -34.523662 -0.675478 12.412031 -58.564630 -6.102934 0.000000 0.000000 0.000000 -8.665313 23.867105 7.399038 23.662382 21.898728 1.453743 29.143708 75.543591 28.953673 0.000000 0.000000 0.000000 
-0.032252 0.954841 -0.045833 -1.441648 0.391113 14.545429 7.321250 -0.835758 -18.400820 4.283080 -0.365733 -1.059480 0.343749 6.360221 16.145175 0.000000 0.000000 0.000000 -1.407722 1.726975 -18.734362 -7.116429 0.455193 -2.484991 0.667822 -4.863978 15.677845 0.000000 0.000000 0.000000 4.290033 -0.948708 8.488224 1.755608 -1.213986 8.650212 -9.243090 5.819094 2.294597 15.287593 -10.893601 -4.273118 0.000000 0.000000 0.000000 19.015595 -38.044062 8.970733 -4.345236 -35.406345 -1.774610 21.940320 -50.654054 -9.529916 0.000000 0.000000 0.000000 -9.901389 25.615553 7.713444 20.911588 23.395675 1.375788 2.754977 74.040963 7.808016 0.000000 0.000000 0.000000 
-0.031137 0.955465 -0.046132 -1.626000 0.025005 14.946888 7.602649 -0.801503 -18.632461 4.209000 -0.343237 -1.296232 0.070258 5.972432 16.491497 0.000000 0.000000 0.000000 -1.178162 1.820615 -19.387603 -7.202162 0.462429 -2.435508 0.904028 -4.512834 15.689628 0.000000 0.000000 0.000000 3.956214 -0.972995 9.317459 1.905897 -1.285322 8.759947 -8.850282 5.671006 2.193896 14.724191 -10.601370 -3.776219 0.000000 0.000000 0.000000 21.510931 -38.155660 8.442127 -0.197192 -36.696678 -2.866452 24.686570 -40.181138 -8.259731 0.000000 0.000000 0.000000 -10.349865 26.920380 8.042567 18.811310 24.778565 1.286723 -9.633831 71.657117 -1.561894 0.000000 0.000000 0.000000 
-0.030377 0.955493 -0.045869 -1.936003 -0.078345 15.196918 7.804747 -0.782670 -18.844936 4.315167 -0.350814 -1.325974 -0.400308 5.360310 16.946653 0.000000 0.000000 0.000000 -0.833829 1.926753 -20.074428 -7.280673 0.530032 -1.824529 0.996764 -4.223718 15.232156 0.000000 0.000000 0.000000 3.717066 -0.959138 9.532058 2.113847 -1.430661 9.485632 -8.478322 5.368594 2.299029 14.255570 -10.493713 -2.984977 0.000000 0.000000 0.000000 23.581900 -38.928181 8.030144 4.521612 -36.481744 -3.976443 24.066989 -29.215052 -5.617032 0.000000 0.000000 0.000000 -10.941701 28.510900 8.392516 16.837249 25.754139 1.112679 -15.427436 69.057937 -5.618439 0.000000 0.000000 0.000000 
-0.029975 0.955765 -0.045450 -2.312798 -0.072686 15.259294 8.268230 -0.729654 -18.850046 4.325480 -0.345017 -1.418264 -0.571465 5.079837 16.909540 0.000000 0.000000 0.000000 -0.395931 2.003247 -20.333789 -7.057873 0.545175 -1.490576 1.160422 -3.815210 14.889210 0.000000 0.000000 0.000000 3.521571 -0.979420 10.155919 2.340784 -1.590677 10.144951 -8.204686 5.088265 1.944054 14.711131 -11.163864 -1.988992 0.000000 0.000000 0.000000 26.065256 -39.868403 7.517647 8.389365 -36.210034 -4.862905 20.501741 -19.026057 -2.932842 0.000000 0.000000 0.000000 -11.201789 29.815952 8.745492 15.722280 26.488096 1.024920 -17.005712 67.195547 -6.595826 0.000000 0.000000 0.000000 
-0.029912 0.955446 -0.045108 -2.631799 -0.355178 15.546712 8.676553 -0.681013 -19.421733 3.974285 -0.331380 -1.173284 -0.434457 5.351664 17.340326 0.000000 0.000000 0.000000 -0.033698 2.115354 -20.934934 -6.942167 0.595511 -0.858625 1.234206 -3.495554 14.204592 0.000000 0.000000 0.000000 3.090954 -0.954669 10.704551 2.480786 -1.643164 9.993970 -8.094769 4.984366 2.575199 14.676839 -11.314486 -1.535209 0.000000 0.000000 0.000000 27.462873 -40.945896 7.193171 11.949822 -35.735409 -5.624360 17.327027 -11.997293 -1.466190 0.000000 0.000000 0.000000 -11.534829 31.025733 9.016127 14.425758 27.148967 0.856703 -19.157341 64.841988 -7.780274 0.000000 0.000000 0.000000 
-0.030046 0.955827 -0.044876 -2.987371 -0.771747 15.621805 8.948011 -0.628346 -19.470296 3.949195 -0.346508 -0.951310 -0.018680 5.930051 17.447065 0.000000 0.000000 0.000000 0.242965 2.188218 -21.183350 -6.558274 0.571088 -0.713100 1.513226 -2.941688 13.912403 0.000000 0.000000 0.000000 2.776224 -0.933187 11.193500 2.459940 -1.633469 10.457250 -7.954006 4.907667 2.350128 14.901079 -11.664461 -0.976989 0.000000 0.000000 0.000000 28.801075 -42.049652 6.902456 12.881766 -34.523902 -5.545277 15.477367 -9.198024 -0.958158 0.000000 0.000000 0.000000 -11.651615 32.134925 9.339006 13.511652 28.144282 0.786926 -21.109365 60.385651 -8.352004 0.000000 0.000000 0.000000 
